<?xml version="1.0" encoding="utf-8"?>
<!-- Generator: Adobe Illustrator 15.0.2, SVG Export Plug-In . SVG Version: 6.00 Build 0)  -->
<!DOCTYPE svg PUBLIC "-//W3C//DTD SVG 1.1//EN" "http://www.w3.org/Graphics/SVG/1.1/DTD/svg11.dtd">
<svg version="1.1" id="Ebene_1" xmlns="http://www.w3.org/2000/svg" xmlns:xlink="http://www.w3.org/1999/xlink" x="0px" y="0px"
	 width="229.012px" height="312.962px" viewBox="0 0 229.012 312.962" enable-background="new 0 0 229.012 312.962"
	 xml:space="preserve">
<path fill="#858584" d="M115.271,0.972C52.65,0.972,1.886,51.737,1.886,114.358S52.65,227.744,115.271,227.744
	c62.621,0,113.386-50.765,113.386-113.386S177.893,0.972,115.271,0.972z M115.271,203.363c-49.156,0-89.005-39.848-89.005-89.005
	c0-49.156,39.849-89.005,89.005-89.005c49.157,0,89.005,39.849,89.005,89.005C204.276,163.515,164.429,203.363,115.271,203.363z"/>
<line fill="#858584" stroke="#858584" stroke-width="28" stroke-linecap="round" stroke-miterlimit="10" x1="118.271" y1="227.424" x2="118.271" y2="298.291"/>
<line fill="#858584" stroke="#858584" stroke-width="28" stroke-linecap="round" stroke-miterlimit="10" x1="61.996" y1="268.858" x2="172.547" y2="268.858"/>
</svg>
