<?xml version="1.0" encoding="utf-8"?>
<!-- Generator: Adobe Illustrator 15.0.2, SVG Export Plug-In . SVG Version: 6.00 Build 0)  -->
<!DOCTYPE svg PUBLIC "-//W3C//DTD SVG 1.1//EN" "http://www.w3.org/Graphics/SVG/1.1/DTD/svg11.dtd">
<svg version="1.1" id="Ebene_1" xmlns="http://www.w3.org/2000/svg" xmlns:xlink="http://www.w3.org/1999/xlink" x="0px" y="0px"
	 width="682px" height="98.5px" viewBox="0 0 682 98.5" enable-background="new 0 0 682 98.5" xml:space="preserve">
<g>
	<path fill="#868686" d="M188.242,97.553v-5.644c0-2.015-0.761-2.735-2.053-2.735c-1.311,0-2.052,0.932-2.052,2.547v5.832h-1.957
		v-9.975h1.957v0.949c0.494-0.721,1.482-1.158,2.508-1.158c2.317,0,3.552,1.52,3.552,4.465v5.719H188.242z"/>
	<path fill="#868686" d="M199.49,97.553v-0.988c-0.685,0.685-1.653,1.197-2.736,1.197c-1.615,0-3.458-0.912-3.458-3.363
		c0-2.223,1.71-3.229,3.971-3.229c0.931,0,1.671,0.133,2.224,0.38v-0.741c0-1.082-0.665-1.689-1.882-1.689
		c-1.025,0-1.823,0.189-2.603,0.627l-0.76-1.482c0.949-0.589,2.014-0.893,3.419-0.893c2.223,0,3.742,1.083,3.742,3.344v6.84h-1.917
		V97.553z M199.49,93.297c-0.532-0.268-1.217-0.438-2.28-0.438c-1.254,0-2.052,0.57-2.052,1.48c0,0.988,0.627,1.653,1.919,1.653
		c1.044,0,1.957-0.646,2.413-1.272V93.297z"/>
	<path fill="#868686" d="M209.75,97.305c-0.476,0.266-1.141,0.457-1.918,0.457c-1.388,0-2.242-0.854-2.242-2.642v-5.757h-1.425
		v-1.785h1.425v-2.85l1.918-1.025v3.875h2.47v1.785h-2.47v5.414c0,0.932,0.304,1.197,1.026,1.197c0.513,0,1.083-0.189,1.443-0.398
		L209.75,97.305z"/>
	<path fill="#868686" d="M219.003,97.553v-0.951c-0.494,0.724-1.481,1.16-2.507,1.16c-2.318,0-3.554-1.521-3.554-4.465v-5.719h1.957
		v5.643c0,2.014,0.761,2.735,2.052,2.735c1.311,0,2.052-0.931,2.052-2.546v-5.832h1.957v9.975H219.003z M215.109,86.248
		c-0.703,0-1.292-0.589-1.292-1.271c0-0.703,0.589-1.293,1.292-1.293c0.685,0,1.272,0.59,1.272,1.293
		C216.381,85.659,215.792,86.248,215.109,86.248z M218.813,86.248c-0.703,0-1.292-0.589-1.292-1.271
		c0-0.703,0.589-1.293,1.292-1.293c0.685,0,1.273,0.59,1.273,1.293C220.086,85.659,219.497,86.248,218.813,86.248z"/>
	<path fill="#868686" d="M230.403,89.648c-0.418-0.229-0.854-0.36-1.5-0.36c-1.234,0-1.957,0.874-1.957,2.563v5.699h-1.957v-9.974
		h1.957v0.95c0.456-0.666,1.292-1.159,2.28-1.159c0.798,0,1.292,0.151,1.691,0.418L230.403,89.648z"/>
	<path fill="#868686" d="M233.406,97.553V84.729l1.957-1.024v13.849H233.406L233.406,97.553z"/>
	<path fill="#868686" d="M240.569,86.286c-0.702,0-1.272-0.569-1.272-1.255c0-0.701,0.57-1.271,1.272-1.271
		c0.685,0,1.253,0.57,1.253,1.271C241.823,85.717,241.253,86.286,240.569,86.286z M239.581,97.553v-9.975h1.957v9.975H239.581z"/>
	<path fill="#868686" d="M251.55,90.447c-0.817-0.836-1.539-1.217-2.432-1.217c-1.426,0-2.338,1.272-2.338,3.306
		c0,1.957,0.837,3.362,2.395,3.362c0.931,0,1.48-0.418,2.261-1.234l1.253,1.234c-0.778,0.988-1.767,1.861-3.57,1.861
		c-2.433,0-4.312-2.052-4.312-5.167c0-3.306,1.938-5.225,4.37-5.225c1.462,0,2.603,0.589,3.533,1.69L251.55,90.447z"/>
	<path fill="#868686" d="M262.399,97.553v-5.644c0-2.015-0.76-2.735-2.052-2.735c-1.311,0-2.052,0.932-2.052,2.547v5.832h-1.957
		V84.729l1.957-1.024v4.825c0.494-0.723,1.481-1.159,2.508-1.159c2.317,0,3.552,1.521,3.552,4.465v5.718H262.399L262.399,97.553z"/>
	<path fill="#868686" d="M274.864,97.553V84.254h1.995v11.342h6.63v1.957H274.864z"/>
	<path fill="#868686" d="M287.347,86.286c-0.703,0-1.273-0.569-1.273-1.255c0-0.701,0.57-1.271,1.273-1.271
		c0.684,0,1.253,0.57,1.253,1.271C288.601,85.717,288.031,86.286,287.347,86.286z M286.359,97.553v-9.975h1.957v9.975H286.359z"/>
	<path fill="#868686" d="M300.475,93.259h-6.592c0.209,1.919,1.292,2.735,2.507,2.735c0.836,0,1.501-0.305,2.166-0.799l1.159,1.255
		c-0.874,0.836-1.919,1.312-3.438,1.312c-2.337,0-4.312-1.882-4.312-5.188c0-3.381,1.786-5.205,4.37-5.205
		c2.831,0,4.197,2.299,4.197,4.996C300.532,92.727,300.494,93.05,300.475,93.259z M296.2,89.137c-1.312,0-2.108,0.911-2.279,2.508
		h4.635C298.461,90.275,297.815,89.137,296.2,89.137z"/>
	<path fill="#868686" d="M307.791,97.762c-1.007,0-1.957-0.533-2.508-1.141v0.932h-1.938V84.71l1.938-1.007v4.824
		c0.722-0.664,1.558-1.158,2.603-1.158c2.147,0,3.838,1.559,3.838,5.357C311.723,96.146,309.861,97.762,307.791,97.762z
		 M307.524,89.174c-0.931,0-1.748,0.627-2.261,1.273v4.197c0.438,0.59,1.349,1.312,2.337,1.312c1.406,0,2.166-1.063,2.166-3.173
		C309.766,90.275,308.968,89.174,307.524,89.174z"/>
	<path fill="#868686" d="M322.971,93.259h-6.592c0.209,1.919,1.292,2.735,2.507,2.735c0.836,0,1.501-0.305,2.166-0.799l1.159,1.255
		c-0.874,0.836-1.919,1.312-3.438,1.312c-2.337,0-4.312-1.882-4.312-5.188c0-3.381,1.786-5.205,4.37-5.205
		c2.831,0,4.197,2.299,4.197,4.996C323.028,92.727,322.99,93.05,322.971,93.259z M318.696,89.137c-1.311,0-2.107,0.911-2.278,2.508
		h4.635C320.957,90.275,320.311,89.137,318.696,89.137z"/>
	<path fill="#868686" d="M338.855,97.553v-0.951c-0.494,0.724-1.48,1.16-2.507,1.16c-2.318,0-3.553-1.521-3.553-4.465v-5.719h1.957
		v5.643c0,2.014,0.76,2.735,2.051,2.735c1.311,0,2.052-0.931,2.052-2.546v-5.832h1.957v9.975H338.855z"/>
	<path fill="#868686" d="M350.9,97.553v-5.644c0-2.015-0.76-2.735-2.052-2.735c-1.31,0-2.051,0.932-2.051,2.547v5.832h-1.957v-9.975
		h1.957v0.949c0.494-0.721,1.481-1.158,2.507-1.158c2.317,0,3.553,1.52,3.553,4.465v5.719H350.9z"/>
	<path fill="#868686" d="M362.434,97.553v-0.951c-0.722,0.666-1.558,1.16-2.603,1.16c-2.146,0-3.837-1.559-3.837-5.357
		c0-3.42,1.86-5.034,3.933-5.034c1.007,0,1.956,0.532,2.507,1.14v-3.8l1.938-1.007v13.85H362.434z M362.453,90.484
		c-0.438-0.59-1.35-1.312-2.337-1.312c-1.405,0-2.166,1.063-2.166,3.173c0,2.508,0.798,3.609,2.241,3.609
		c0.932,0,1.748-0.627,2.262-1.271V90.484z"/>
	<path fill="#868686" d="M376.951,86.21v3.478h3.817v1.957h-3.817v5.908h-1.995V84.254h8.567v1.956H376.951z"/>
	<path fill="#868686" d="M390.762,89.648c-0.418-0.229-0.855-0.36-1.501-0.36c-1.235,0-1.957,0.874-1.957,2.563v5.699h-1.957v-9.974
		h1.957v0.95c0.456-0.666,1.292-1.159,2.279-1.159c0.799,0,1.292,0.151,1.69,0.418L390.762,89.648z"/>
	<path fill="#868686" d="M401.23,93.259h-6.592c0.209,1.919,1.292,2.735,2.508,2.735c0.836,0,1.5-0.305,2.165-0.799l1.159,1.255
		c-0.874,0.836-1.919,1.312-3.438,1.312c-2.337,0-4.312-1.882-4.312-5.188c0-3.381,1.786-5.205,4.369-5.205
		c2.831,0,4.197,2.299,4.197,4.996C401.286,92.727,401.25,93.05,401.23,93.259z M396.955,89.137c-1.311,0-2.107,0.911-2.278,2.508
		h4.635C399.217,90.275,398.571,89.137,396.955,89.137z"/>
	<path fill="#868686" d="M410.084,97.553v-0.951c-0.494,0.724-1.481,1.16-2.509,1.16c-2.316,0-3.552-1.521-3.552-4.465v-5.719h1.956
		v5.643c0,2.014,0.76,2.735,2.052,2.735c1.312,0,2.053-0.931,2.053-2.546v-5.832h1.957v9.975H410.084z"/>
	<path fill="#868686" d="M422.13,97.553v-5.644c0-2.015-0.761-2.735-2.053-2.735c-1.311,0-2.052,0.932-2.052,2.547v5.832h-1.957
		v-9.975h1.957v0.949c0.494-0.721,1.481-1.158,2.508-1.158c2.317,0,3.554,1.52,3.554,4.465v5.719H422.13z"/>
	<path fill="#868686" d="M433.662,97.553v-0.951c-0.723,0.666-1.559,1.16-2.603,1.16c-2.147,0-3.838-1.559-3.838-5.357
		c0-3.42,1.86-5.034,3.933-5.034c1.007,0,1.956,0.532,2.508,1.14v-3.8l1.938-1.007v13.85H433.662z M433.682,90.484
		c-0.438-0.59-1.35-1.312-2.337-1.312c-1.405,0-2.165,1.063-2.165,3.173c0,2.508,0.798,3.609,2.241,3.609
		c0.931,0,1.748-0.627,2.261-1.271V90.484L433.682,90.484z"/>
	<path fill="#868686" d="M442.859,97.762c-1.349,0-2.812-0.533-3.817-1.273l0.894-1.481c0.931,0.646,1.976,0.988,2.906,0.988
		c1.233,0,1.823-0.399,1.823-1.103c0-0.761-0.873-1.121-2.317-1.672c-2.146-0.836-2.926-1.558-2.926-3.135
		c0-1.786,1.405-2.717,3.4-2.717c1.253,0,2.488,0.456,3.381,1.102l-0.854,1.502c-0.817-0.57-1.634-0.854-2.584-0.854
		c-0.949,0-1.367,0.38-1.367,0.911c0,0.494,0.342,0.854,1.843,1.443c2.224,0.854,3.362,1.463,3.362,3.344
		C446.603,97.02,444.816,97.762,442.859,97.762z"/>
	<path fill="#868686" d="M455.948,90.447c-0.816-0.836-1.539-1.217-2.432-1.217c-1.425,0-2.337,1.272-2.337,3.306
		c0,1.957,0.836,3.362,2.394,3.362c0.933,0,1.482-0.418,2.262-1.234l1.254,1.234c-0.778,0.988-1.768,1.861-3.571,1.861
		c-2.432,0-4.312-2.052-4.312-5.167c0-3.306,1.938-5.225,4.369-5.225c1.463,0,2.604,0.589,3.534,1.69L455.948,90.447z"/>
	<path fill="#868686" d="M466.419,97.553v-5.644c0-2.015-0.761-2.735-2.053-2.735c-1.311,0-2.052,0.932-2.052,2.547v5.832h-1.957
		V84.729l1.957-1.024v4.825c0.494-0.723,1.481-1.159,2.508-1.159c2.317,0,3.554,1.521,3.554,4.465v5.718H466.419L466.419,97.553z"/>
	<path fill="#868686" d="M478.047,97.553v-0.988c-0.685,0.685-1.653,1.197-2.735,1.197c-1.615,0-3.458-0.912-3.458-3.363
		c0-2.223,1.71-3.229,3.971-3.229c0.932,0,1.672,0.133,2.224,0.38v-0.741c0-1.082-0.665-1.689-1.882-1.689
		c-1.025,0-1.823,0.189-2.603,0.627l-0.76-1.482c0.949-0.589,2.014-0.893,3.419-0.893c2.223,0,3.743,1.083,3.743,3.344v6.84h-1.919
		V97.553z M478.047,93.297c-0.532-0.268-1.217-0.438-2.28-0.438c-1.253,0-2.051,0.57-2.051,1.48c0,0.988,0.626,1.653,1.918,1.653
		c1.045,0,1.957-0.646,2.413-1.272V93.297z"/>
	<path fill="#868686" d="M487.072,85.471c-0.646,0-0.912,0.246-0.912,0.969v1.14h1.844v1.823h-1.844v8.15h-1.957v-8.15h-1.292
		v-1.823h1.292v-1.312c0-1.824,1.121-2.508,2.527-2.508c0.513,0,1.063,0.076,1.481,0.19v1.709
		C487.756,85.525,487.413,85.471,487.072,85.471z"/>
	<path fill="#868686" d="M496.324,97.305c-0.475,0.266-1.14,0.457-1.919,0.457c-1.387,0-2.241-0.854-2.241-2.642v-5.757h-1.425
		v-1.785h1.425v-2.85l1.92-1.025v3.875h2.47v1.785h-2.47v5.414c0,0.932,0.304,1.197,1.024,1.197c0.513,0,1.083-0.189,1.444-0.398
		L496.324,97.305z"/>
</g>
<ellipse fill="#E95E5E" cx="568.596" cy="68.317" rx="7.691" ry="7.509"/>
<path fill="#363636" d="M71.499,79.365c0.253,0.127,0.808,0.363,1.663,0.713c0.854,0.348,1.931,0.697,3.229,1.045
	s2.817,0.648,4.561,0.902c1.74,0.252,3.625,0.381,5.652,0.381c2.152,0,4.274-0.238,6.364-0.713c2.091-0.475,3.958-1.33,5.605-2.564
	c1.646-1.236,2.991-2.963,4.036-5.178c1.045-2.219,1.567-5.066,1.567-8.551v-1.139c-1.457,1.709-3.562,3.324-6.317,4.844
	c-2.755,1.52-6.063,2.281-9.927,2.281c-3.548,0-6.81-0.586-9.785-1.758c-2.978-1.171-5.543-2.818-7.694-4.941
	c-2.153-2.121-3.833-4.67-5.035-7.646c-1.204-2.978-1.806-6.271-1.806-9.881c0-3.609,0.648-6.934,1.947-9.975
	c1.298-3.039,3.088-5.668,5.367-7.885c2.28-2.217,5.02-3.957,8.218-5.225c3.197-1.266,6.697-1.9,10.498-1.9
	c3.609,0,6.949,0.539,10.022,1.615c3.07,1.078,5.747,2.723,8.026,4.939c2.28,2.219,4.053,5.035,5.319,8.455s1.9,7.443,1.9,12.064
	v13.683c0,5.004-0.683,9.291-2.042,12.871c-1.363,3.577-3.247,6.508-5.653,8.786c-2.407,2.281-5.272,3.942-8.597,4.989
	c-3.325,1.045-6.952,1.568-10.878,1.568c-2.599,0-4.956-0.144-7.077-0.429c-2.123-0.284-4.007-0.635-5.653-1.045
	c-1.647-0.414-3.009-0.823-4.085-1.237c-1.077-0.412-1.868-0.744-2.375-0.996L71.499,79.365z M89.549,62.266
	c2.152,0,4.116-0.379,5.891-1.141c1.772-0.76,3.292-1.805,4.561-3.135c1.267-1.33,2.264-2.912,2.992-4.75
	c0.728-1.836,1.093-3.861,1.093-6.08c0-2.152-0.365-4.162-1.093-6.031c-0.729-1.867-1.727-3.482-2.992-4.846
	c-1.269-1.361-2.787-2.422-4.561-3.182c-1.773-0.762-3.737-1.141-5.891-1.141c-2.218,0-4.229,0.396-6.032,1.188
	c-1.805,0.793-3.341,1.885-4.606,3.277c-1.269,1.395-2.249,3.01-2.945,4.846c-0.697,1.838-1.045,3.799-1.045,5.889
	c0,4.561,1.33,8.219,3.99,10.973C81.569,60.889,85.115,62.266,89.549,62.266z"/>
<path fill="#363636" d="M124.364,6.215c0-1.709,0.507-2.975,1.521-3.799c1.013-0.822,2.438-1.234,4.275-1.234
	c1.14,0,2.185,0.143,3.135,0.426c0.95,0.285,1.583,0.492,1.899,0.619v68.968h-10.83V6.215L124.364,6.215z"/>
<path fill="#363636" d="M188.249,67.682c-0.508,0.316-1.299,0.76-2.375,1.33c-1.078,0.568-2.423,1.107-4.038,1.613
	c-1.615,0.508-3.483,0.951-5.604,1.33c-2.123,0.381-4.449,0.57-6.981,0.57c-3.548,0-6.856-0.539-9.929-1.615
	s-5.764-2.674-8.074-4.797c-2.312-2.12-4.134-4.717-5.463-7.788c-1.329-3.072-1.994-6.604-1.994-10.594
	c0-3.799,0.647-7.268,1.946-10.402c1.298-3.135,3.104-5.826,5.415-8.074s5.035-3.99,8.17-5.227
	c3.136-1.234,6.569-1.852,10.309-1.852c3.292,0,6.206,0.428,8.74,1.283c2.531,0.854,4.669,1.994,6.412,3.42
	c1.74,1.424,3.055,3.086,3.941,4.986c0.886,1.9,1.33,3.928,1.33,6.08c0,2.219-0.413,4.229-1.235,6.033
	c-0.822,1.805-2.278,3.357-4.369,4.654c-2.091,1.3-4.908,2.312-8.454,3.041c-3.549,0.729-8.044,1.093-13.49,1.093
	c-1.269,0-2.455-0.017-3.562-0.047c-1.108-0.031-2.297-0.08-3.562-0.144c0.506,3.229,2.073,5.842,4.702,7.838
	c2.628,1.993,6.38,2.991,11.258,2.991c1.646,0,3.166-0.127,4.56-0.381c1.394-0.252,2.645-0.569,3.753-0.948
	c1.107-0.382,2.059-0.761,2.851-1.142c0.791-0.379,1.378-0.664,1.758-0.854L188.249,67.682z M154.903,45.167
	c1.456,0.064,2.852,0.096,4.182,0.096s2.66,0,3.988,0c3.482,0,6.303-0.223,8.455-0.666c2.152-0.441,3.831-1.012,5.035-1.709
	c1.202-0.697,1.995-1.488,2.375-2.375c0.38-0.887,0.57-1.807,0.57-2.756c0-2.406-0.967-4.211-2.897-5.416
	c-1.933-1.201-4.321-1.805-7.173-1.805c-2.344,0-4.401,0.414-6.175,1.236c-1.772,0.822-3.263,1.916-4.465,3.277
	c-1.204,1.361-2.138,2.93-2.803,4.701C155.331,41.526,154.966,43.331,154.903,45.167z"/>
<path fill="#363636" d="M203.019,2.131c1.836,0,3.387,0.633,4.655,1.9c1.266,1.268,1.898,2.818,1.898,4.654
	c0,1.838-0.634,3.389-1.898,4.654c-1.27,1.27-2.819,1.9-4.655,1.9c-1.838,0-3.389-0.631-4.655-1.9
	c-1.268-1.266-1.898-2.816-1.898-4.654c0-1.836,0.632-3.387,1.898-4.654C199.63,2.764,201.181,2.131,203.019,2.131z M197.604,28.542
	c0-1.773,0.506-3.055,1.521-3.848c1.013-0.791,2.438-1.188,4.274-1.188c1.141,0,2.186,0.143,3.136,0.428
	c0.949,0.285,1.583,0.49,1.899,0.617v46.644h-10.83V28.542L197.604,28.542z"/>
<path fill="#363636" d="M259.443,67.775c-0.761,0.509-1.694,1.031-2.803,1.568c-1.109,0.539-2.375,1.045-3.8,1.52
	c-1.426,0.475-3.04,0.869-4.846,1.188c-1.806,0.316-3.849,0.475-6.127,0.475c-3.549,0-6.873-0.539-9.977-1.614
	c-3.104-1.076-5.827-2.673-8.17-4.796c-2.344-2.121-4.196-4.734-5.558-7.838c-1.362-3.103-2.042-6.682-2.042-10.734
	c0-4.052,0.665-7.662,1.995-10.83c1.329-3.166,3.165-5.826,5.51-7.98c2.343-2.152,5.112-3.783,8.312-4.893
	c3.197-1.107,6.634-1.662,10.309-1.662c3.103,0,5.747,0.254,7.933,0.76c2.185,0.508,3.957,1.141,5.319,1.9
	c1.36,0.76,2.343,1.615,2.944,2.564c0.603,0.951,0.902,1.9,0.902,2.85c0,1.268-0.427,2.439-1.282,3.516
	c-0.854,1.078-1.662,1.9-2.423,2.471c-1.14-1.076-2.787-2.104-4.938-3.088c-2.154-0.98-4.814-1.473-7.98-1.473
	c-2.153,0-4.165,0.318-6.032,0.949c-1.869,0.635-3.482,1.602-4.845,2.898c-1.363,1.299-2.439,2.914-3.23,4.846
	c-0.792,1.932-1.188,4.227-1.188,6.887c0,2.787,0.411,5.162,1.235,7.125c0.821,1.963,1.962,3.578,3.42,4.846
	c1.456,1.269,3.135,2.201,5.034,2.801c1.899,0.605,3.957,0.904,6.176,0.904c3.166,0,5.715-0.428,7.646-1.283
	c1.933-0.854,3.245-1.504,3.942-1.946L259.443,67.775z"/>
<path fill="#363636" d="M265.617,6.215c0-1.709,0.506-2.975,1.52-3.799c1.013-0.822,2.438-1.234,4.275-1.234
	c1.14,0,2.186,0.143,3.135,0.426c0.95,0.285,1.583,0.492,1.899,0.619v26.125c1.267-1.521,3.166-2.945,5.7-4.275
	c2.532-1.33,5.826-1.996,9.88-1.996c2.912,0,5.59,0.414,8.027,1.236c2.438,0.822,4.544,2.041,6.317,3.656
	c1.771,1.615,3.135,3.627,4.085,6.033c0.949,2.408,1.425,5.225,1.425,8.455v29.734h-10.83V44.692c0-4.18-0.871-7.348-2.612-9.5
	c-1.742-2.152-4.734-3.23-8.978-3.23c-4.309,0-7.552,1.252-9.737,3.752c-2.185,2.504-3.277,5.812-3.277,9.928v25.553h-10.829V6.215z
	"/>
<path fill="#363636" d="M320.901,6.215c0-1.709,0.508-2.975,1.521-3.799c1.013-0.822,2.438-1.234,4.274-1.234
	c1.141,0,2.186,0.143,3.136,0.426c0.95,0.285,1.582,0.492,1.898,0.619v38.807c0.822-0.566,1.979-1.404,3.468-2.508
	c1.487-1.105,3.149-2.32,4.987-3.646c1.836-1.326,3.736-2.715,5.701-4.166c1.961-1.453,3.83-2.809,5.604-4.072
	c1.394-1.012,2.66-1.789,3.802-2.328c1.141-0.537,2.627-0.807,4.465-0.807c1.711,0,3.166,0.461,4.369,1.377
	c1.203,0.92,1.963,1.695,2.28,2.328c-1.329,1.201-3.151,2.668-5.463,4.406c-2.312,1.736-4.672,3.475-7.078,5.211
	c-2.405,1.736-4.688,3.348-6.84,4.832c-2.153,1.484-3.705,2.574-4.653,3.268c5.383,3.998,10.291,8.328,14.725,12.992
	c4.432,4.664,8.17,9.089,11.211,13.274h-13.49c-1.459-1.774-3.088-3.631-4.893-5.567s-3.738-3.84-5.795-5.715
	c-2.06-1.871-4.149-3.681-6.271-5.427c-2.122-1.745-4.164-3.348-6.127-4.808v21.517h-10.83L320.901,6.215L320.901,6.215z"/>
<path fill="#363636" d="M374.29,6.215c0-1.709,0.508-2.975,1.521-3.799c1.012-0.822,2.438-1.234,4.273-1.234
	c1.141,0,2.186,0.143,3.137,0.426c0.949,0.285,1.582,0.492,1.898,0.619v68.968h-10.83L374.29,6.215L374.29,6.215z"/>
<path fill="#363636" d="M439.649,71.006c-0.633,0.127-1.631,0.27-2.992,0.428c-1.362,0.156-2.961,0.316-4.797,0.476
	c-1.838,0.157-3.896,0.301-6.176,0.428s-4.654,0.188-7.125,0.188c-4.939,0-8.978-0.428-12.111-1.28
	c-3.135-0.854-5.604-1.996-7.41-3.419c-1.805-1.426-3.04-3.072-3.704-4.941c-0.666-1.867-0.998-3.783-0.998-5.746
	c0-2.598,0.395-4.877,1.188-6.842c0.791-1.961,2.09-3.609,3.896-4.939c1.807-1.33,4.163-2.328,7.077-2.992
	c2.912-0.664,6.459-0.998,10.64-0.998c2.406,0,4.688,0.08,6.842,0.238c2.152,0.158,3.766,0.301,4.844,0.428
	c0-2.217-0.365-4.053-1.092-5.51c-0.729-1.457-1.727-2.598-2.992-3.42c-1.268-0.822-2.789-1.393-4.561-1.711
	c-1.773-0.316-3.738-0.475-5.892-0.475c-3.608,0-6.506,0.412-8.69,1.234c-2.187,0.824-3.627,1.52-4.322,2.09
	c-0.381-0.316-0.902-0.916-1.568-1.805c-0.664-0.887-0.996-1.963-0.996-3.23c0-0.885,0.236-1.756,0.712-2.611
	c0.477-0.855,1.313-1.615,2.518-2.281c1.203-0.664,2.818-1.188,4.846-1.566c2.025-0.381,4.59-0.57,7.695-0.57
	c3.734,0,7.139,0.365,10.211,1.092c3.072,0.73,5.715,1.887,7.934,3.469c2.216,1.584,3.941,3.674,5.179,6.271
	c1.233,2.598,1.852,5.732,1.852,9.404v28.592H439.649z M428.914,49.917c-0.635-0.127-1.821-0.316-3.562-0.57
	c-1.742-0.252-4.355-0.381-7.838-0.381c-4.308,0-7.441,0.65-9.404,1.949s-2.945,3.34-2.945,6.127c0,1.142,0.205,2.187,0.617,3.136
	c0.412,0.948,1.125,1.758,2.14,2.422c1.012,0.666,2.389,1.174,4.131,1.521s3.91,0.521,6.508,0.521c2.912,0,5.225-0.109,6.936-0.332
	c1.709-0.221,2.851-0.395,3.421-0.522V49.917H428.914z"/>
<path fill="#363636" d="M449.763,42.411c0-3.166,0.586-6,1.758-8.502c1.172-2.502,2.787-4.623,4.846-6.365
	c2.058-1.74,4.496-3.07,7.314-3.99c2.817-0.916,5.904-1.377,9.264-1.377c3.355,0,6.459,0.461,9.31,1.377
	c2.85,0.92,5.305,2.25,7.362,3.99c2.058,1.742,3.656,3.863,4.797,6.365c1.142,2.502,1.712,5.336,1.712,8.502v28.784h-10.83V45.167
	c0-4.307-1.045-7.584-3.136-9.832c-2.09-2.248-5.164-3.373-9.215-3.373c-4.119,0-7.207,1.125-9.264,3.373
	c-2.06,2.248-3.088,5.525-3.088,9.832v26.028h-10.83V42.411z"/>
<path fill="#363636" d="M512.128,79.365c0.252,0.127,0.807,0.363,1.661,0.713c0.855,0.348,1.933,0.697,3.23,1.045
	c1.297,0.348,2.816,0.648,4.559,0.902c1.742,0.252,3.625,0.381,5.652,0.381c2.152,0,4.275-0.238,6.365-0.713s3.957-1.33,5.604-2.564
	c1.646-1.236,2.992-2.963,4.037-5.178c1.045-2.219,1.568-5.066,1.568-8.551v-1.139c-1.457,1.709-3.562,3.324-6.318,4.844
	c-2.754,1.52-6.063,2.281-9.928,2.281c-3.547,0-6.81-0.586-9.785-1.758c-2.977-1.171-5.541-2.818-7.693-4.941
	c-2.153-2.121-3.834-4.67-5.034-7.646c-1.205-2.978-1.806-6.271-1.806-9.881c0-3.609,0.648-6.934,1.947-9.975
	c1.297-3.039,3.086-5.668,5.367-7.885c2.278-2.217,5.018-3.957,8.217-5.225c3.197-1.266,6.697-1.9,10.498-1.9
	c3.609,0,6.949,0.539,10.021,1.615c3.072,1.078,5.748,2.723,8.029,4.939c2.279,2.219,4.051,5.035,5.318,8.455
	c1.267,3.42,1.899,7.443,1.899,12.064v13.683c0,5.004-0.682,9.291-2.043,12.871c-1.36,3.578-3.246,6.508-5.651,8.786
	c-2.406,2.281-5.271,3.942-8.599,4.989c-3.323,1.045-6.95,1.568-10.877,1.568c-2.598,0-4.957-0.144-7.078-0.429
	c-2.121-0.284-4.006-0.635-5.651-1.045c-1.646-0.414-3.008-0.823-4.084-1.237c-1.078-0.412-1.869-0.744-2.375-0.996L512.128,79.365z
	 M530.177,62.266c2.151,0,4.117-0.379,5.891-1.141c1.771-0.76,3.293-1.805,4.562-3.135c1.266-1.33,2.264-2.912,2.991-4.75
	c0.728-1.836,1.093-3.861,1.093-6.08c0-2.152-0.365-4.162-1.093-6.031c-0.729-1.867-1.727-3.482-2.991-4.846
	c-1.269-1.361-2.789-2.422-4.562-3.182c-1.772-0.762-3.738-1.141-5.891-1.141c-2.217,0-4.228,0.396-6.031,1.188
	c-1.807,0.793-3.342,1.885-4.607,3.277c-1.268,1.395-2.25,3.01-2.944,4.846c-0.697,1.838-1.045,3.799-1.045,5.889
	c0,4.561,1.33,8.219,3.989,10.973C522.198,60.889,525.742,62.266,530.177,62.266z"/>
<path fill="#363636" d="M618.026,6.215c0-1.709,0.49-2.975,1.473-3.799c0.98-0.822,2.39-1.234,4.228-1.234
	c1.141,0,2.186,0.143,3.135,0.426c0.951,0.285,1.584,0.492,1.9,0.619v42.844c0,4.625-0.65,8.645-1.947,12.066
	c-1.299,3.42-3.088,6.27-5.367,8.549c-2.278,2.279-4.973,3.99-8.076,5.131c-3.104,1.139-6.491,1.709-10.163,1.709
	c-3.738,0-7.173-0.633-10.308-1.9c-3.137-1.266-5.844-3.005-8.123-5.225c-2.281-2.215-4.069-4.875-5.367-7.979
	c-1.299-3.103-1.946-6.459-1.946-10.068c0-3.674,0.616-7.045,1.852-10.119c1.234-3.07,2.945-5.73,5.131-7.979
	c2.185-2.248,4.75-3.99,7.693-5.227c2.945-1.234,6.16-1.852,9.643-1.852c3.674,0,6.902,0.713,9.691,2.137
	c2.785,1.426,4.971,3.152,6.555,5.178V6.215H618.026z M618.026,47.352c0-2.152-0.365-4.182-1.094-6.08
	c-0.729-1.9-1.725-3.547-2.992-4.941c-1.268-1.393-2.803-2.484-4.607-3.277c-1.805-0.791-3.784-1.188-5.938-1.188
	c-2.217,0-4.213,0.396-5.984,1.188c-1.772,0.793-3.311,1.869-4.606,3.23c-1.299,1.363-2.297,2.992-2.992,4.893
	c-0.697,1.9-1.045,3.959-1.045,6.176s0.348,4.26,1.045,6.127c0.695,1.869,1.693,3.483,2.992,4.846
	c1.297,1.361,2.834,2.438,4.606,3.229c1.771,0.793,3.769,1.188,5.984,1.188c2.152,0,4.133-0.38,5.938-1.14
	c1.806-0.762,3.341-1.807,4.607-3.137c1.268-1.328,2.264-2.943,2.992-4.844C617.659,51.723,618.026,49.631,618.026,47.352z"/>
<path fill="#363636" d="M679.199,67.682c-0.506,0.316-1.299,0.76-2.375,1.33c-1.076,0.568-2.422,1.107-4.037,1.613
	c-1.614,0.508-3.481,0.951-5.604,1.33c-2.121,0.381-4.449,0.57-6.982,0.57c-3.547,0-6.854-0.539-9.926-1.615
	c-3.074-1.076-5.766-2.674-8.076-4.797c-2.312-2.12-4.133-4.717-5.463-7.788c-1.33-3.072-1.994-6.604-1.994-10.594
	c0-3.799,0.648-7.268,1.947-10.402c1.297-3.135,3.103-5.826,5.416-8.074c2.312-2.248,5.033-3.99,8.17-5.227
	c3.135-1.234,6.568-1.852,10.308-1.852c3.293,0,6.206,0.428,8.739,1.283c2.531,0.854,4.67,1.994,6.412,3.42
	c1.742,1.424,3.055,3.086,3.943,4.986c0.885,1.9,1.33,3.928,1.33,6.08c0,2.219-0.414,4.229-1.236,6.033
	c-0.824,1.805-2.279,3.357-4.369,4.654c-2.09,1.3-4.908,2.312-8.455,3.041c-3.549,0.729-8.045,1.093-13.49,1.093
	c-1.268,0-2.454-0.017-3.562-0.047c-1.109-0.031-2.297-0.08-3.562-0.144c0.507,3.229,2.074,5.842,4.703,7.838
	c2.627,1.993,6.379,2.991,11.258,2.991c1.646,0,3.166-0.127,4.56-0.381c1.393-0.252,2.645-0.569,3.754-0.948
	c1.105-0.382,2.057-0.761,2.85-1.142c0.791-0.379,1.378-0.664,1.759-0.854L679.199,67.682z M645.856,45.167
	c1.455,0.064,2.85,0.096,4.18,0.096s2.66,0,3.99,0c3.482,0,6.301-0.223,8.455-0.666c2.152-0.441,3.83-1.012,5.035-1.709
	c1.201-0.697,1.994-1.488,2.375-2.375c0.379-0.887,0.57-1.807,0.57-2.756c0-2.406-0.968-4.211-2.898-5.416
	c-1.932-1.201-4.322-1.805-7.172-1.805c-2.344,0-4.402,0.414-6.176,1.236c-1.774,0.822-3.263,1.916-4.466,3.277
	c-1.202,1.361-2.137,2.93-2.803,4.701C646.283,41.526,645.919,43.331,645.856,45.167z"/>
<ellipse fill="#D2DDC3" cx="93.699" cy="37.858" rx="0" ry="0.833"/>
<path opacity="0.44" fill="#779864" d="M26.192,61.749c-7.175-1.299-12.623-7.618-12.623-15.233c0-7.616,5.448-13.935,12.623-15.234
	V20.588C12.598,21.91,1.987,33.013,1.987,46.516c0,13.503,10.61,24.606,24.205,25.927V61.749z"/>
<path fill="#79973C" d="M31.64,20.588v10.694c7.175,1.299,12.623,7.617,12.623,15.234c0,7.617-5.449,13.934-12.623,15.233v10.694
	c13.594-1.321,24.205-12.424,24.205-25.927C55.845,33.013,45.233,21.91,31.64,20.588z"/>
</svg>
