<?xml version="1.0" encoding="utf-8"?>
<!-- Generator: Adobe Illustrator 15.0.2, SVG Export Plug-In . SVG Version: 6.00 Build 0)  -->
<!DOCTYPE svg PUBLIC "-//W3C//DTD SVG 1.1//EN" "http://www.w3.org/Graphics/SVG/1.1/DTD/svg11.dtd">
<svg version="1.1" id="Ebene_1" xmlns="http://www.w3.org/2000/svg" xmlns:xlink="http://www.w3.org/1999/xlink" x="0px" y="0px"
	 width="68.906px" height="67.875px" viewBox="0 0 68.906 67.875" enable-background="new 0 0 68.906 67.875" xml:space="preserve">
<g>
	<circle fill="#F5F7EB" cx="34.016" cy="34.016" r="33.732"/>
	<circle fill="#37879F" cx="34.015" cy="34.016" r="24.094"/>
</g>
<g>
	<circle fill="#37879F" cx="33.866" cy="32.008" r="11.598"/>
	<path fill="#F5F7EB" d="M41.681,44.779c4.293-2.633,7.154-7.367,7.154-12.771c0-8.268-6.701-14.969-14.969-14.969
		S18.896,23.74,18.896,32.008c0,5.449,2.909,10.216,7.259,12.834c-6.99,2.266-12.66,7.468-15.551,14.15h4.191
		c3.638-6.898,10.879-11.604,19.222-11.604c8.341,0,15.583,4.706,19.221,11.604h4.191C54.512,52.244,48.763,47.009,41.681,44.779z
		 M33.866,43.605c-6.406,0-11.599-5.191-11.599-11.598c0-6.405,5.192-11.598,11.599-11.598c6.404,0,11.598,5.192,11.598,11.598
		C45.464,38.414,40.271,43.605,33.866,43.605z"/>
</g>
</svg>
