<?xml version="1.0" encoding="utf-8"?>
<!-- Generator: Adobe Illustrator 15.0.2, SVG Export Plug-In . SVG Version: 6.00 Build 0)  -->
<!DOCTYPE svg PUBLIC "-//W3C//DTD SVG 1.1//EN" "http://www.w3.org/Graphics/SVG/1.1/DTD/svg11.dtd">
<svg version="1.1" id="Ebene_1" xmlns="http://www.w3.org/2000/svg" xmlns:xlink="http://www.w3.org/1999/xlink" x="0px" y="0px"
	 width="283.333px" height="280.864px" viewBox="0 0 283.333 280.864" enable-background="new 0 0 283.333 280.864"
	 xml:space="preserve">
<path fill="#858584" d="M114.432,52.923c-62.622,0-113.386,50.765-113.386,113.386s50.764,113.386,113.386,113.386
	c62.621,0,113.386-50.765,113.386-113.386S177.053,52.923,114.432,52.923z M114.432,255.313c-49.156,0-89.005-39.848-89.005-89.005
	c0-49.156,39.849-89.005,89.005-89.005c49.157,0,89.005,39.849,89.005,89.005C203.437,215.466,163.589,255.313,114.432,255.313z"/>
<g>
	
		<line fill="#858584" stroke="#858584" stroke-width="28" stroke-linecap="round" stroke-miterlimit="10" x1="168.826" y1="15.773" x2="268.038" y2="15.773"/>
	
		<line fill="#858584" stroke="#858584" stroke-width="28" stroke-linecap="round" stroke-miterlimit="10" x1="198.334" y1="86.907" x2="268.532" y2="15.709"/>
	
		<line fill="#858584" stroke="#858584" stroke-width="28" stroke-linecap="round" stroke-miterlimit="10" x1="268.432" y1="115.38" x2="268.432" y2="16.168"/>
</g>
</svg>
